<svg xmlns="http://www.w3.org/2000/svg" width="71.4" height="71.4" viewBox="0 0 102 102"><defs><clipPath id="ajwua"><path fill="#fff" d="M0 102V0h102v102zm9.969-50.719c0 22.42 18.174 40.594 40.593 40.594h.188c22.42 0 40.594-18.174 40.594-40.594S73.169 10.687 50.75 10.687h-.188c-22.419 0-40.593 18.175-40.593 40.594z"/></clipPath></defs><g><g><path fill="#333" d="M50.562 10.687h.188c22.42 0 40.594 18.175 40.594 40.594 0 22.42-18.175 40.594-40.594 40.594h-.188c-22.419 0-40.593-18.174-40.593-40.594s18.174-40.594 40.593-40.594z"/><path fill="none" stroke="#333" stroke-linecap="round" stroke-linejoin="round" stroke-miterlimit="20" stroke-opacity=".28" stroke-width="20" d="M50.562 10.687h.188c22.42 0 40.594 18.175 40.594 40.594 0 22.42-18.175 40.594-40.594 40.594h-.188c-22.419 0-40.593-18.174-40.593-40.594s18.174-40.594 40.593-40.594z" clip-path="url(&quot;#ajwua&quot;)"/></g></g></svg>