<svg xmlns="http://www.w3.org/2000/svg" width="69.3" height="68.6" viewBox="0 0 99 98"><defs><mask id="krmzb" width="2.32" height="2.32" x="-1.16" y="-1.16"><path fill="#fff" d="M14.9 14.9h66.2v66.2H14.9z"/><path d="M48 23c13.807 0 25 11.192 25 25 0 13.807-11.193 25-25 25S23 61.807 23 48c0-13.808 11.193-25 25-25z"/></mask><filter id="krmza" width="125.7" height="125" x="-14" y="-14" filterUnits="userSpaceOnUse"><feOffset dx="1.7" dy="1" in="SourceGraphic" result="FeOffset1087Out"/><feGaussianBlur in="FeOffset1087Out" result="FeGaussianBlur1088Out" stdDeviation="7.56 7.56"/></filter></defs><g><g><g filter="url(#krmza)"><path fill="none" stroke="#ccccdf" stroke-opacity=".4" stroke-width="16.2" d="M48 23c13.807 0 25 11.192 25 25 0 13.807-11.193 25-25 25S23 61.807 23 48c0-13.808 11.193-25 25-25z" mask="url(&quot;#krmzb&quot;)"/><path fill="#ccccdf" fill-opacity=".4" d="M48 23c13.807 0 25 11.192 25 25 0 13.807-11.193 25-25 25S23 61.807 23 48c0-13.808 11.193-25 25-25z"/></g><path fill="#fff" d="M48 23c13.807 0 25 11.192 25 25 0 13.807-11.193 25-25 25S23 61.807 23 48c0-13.808 11.193-25 25-25z"/></g></g></svg>